<svg width="522.275px" height="160.16000366210938px" xmlns="http://www.w3.org/2000/svg" viewBox="-11.137499999999989 -5.0800018310546875 522.275 160.16000366210938" style="background: rgba(0, 0, 0, 0);" preserveAspectRatio="xMidYMid"><defs><filter id="editing-extrusion" x="-100%" y="-100%" width="300%" height="300%"><feFlood result="color1" flood-color="#444444"></feFlood><feConvolveMatrix order="8,8" divisor="1" kernelMatrix="1 0 0 0 0 0 0 0 0 1 0 0 0 0 0 0 0 0 1 0 0 0 0 0 0 0 0 1 0 0 0 0 0 0 0 0 1 0 0 0 0 0 0 0 0 1 0 0 0 0 0 0 0 0 1 0 0 0 0 0 0 0 0 1" in="SourceAlpha" result="extrude"></feConvolveMatrix><feComposite in="color1" in2="extrude" result="comp-extrude" operator="in"></feComposite><feOffset dx="4" dy="4" in="comp-extrude" result="offset-extrude"></feOffset><feMerge><feMergeNode in="offset-extrude"></feMergeNode><feMergeNode in="SourceGraphic"></feMergeNode></feMerge></filter></defs><g filter="url(#editing-extrusion)"><g transform="translate(65.7450213432312, 100.76000022888184)"><path d="M39.23 0L11.39 0L11.39-11.26L16.51-11.26L16.51-38.72L12.10-38.72L10.75-30.14L1.98-30.14L1.98-49.73L48.77-49.73L48.77-30.14L40-30.14L38.66-38.72L34.11-38.72L34.11-11.26L39.23-11.26L39.23 0ZM72.45 0.58L72.45 0.58Q66.82 0.58 62.53-1.50L62.53-1.50L62.53-1.50Q58.24-3.58 55.87-7.58L55.87-7.58L55.87-7.58Q53.50-11.58 53.50-17.09L53.50-17.09L53.50-17.09Q53.50-22.53 55.87-26.37L55.87-26.37L55.87-26.37Q58.24-30.21 62.53-32.16L62.53-32.16L62.53-32.16Q66.82-34.11 72.45-34.11L72.45-34.11L72.45-34.11Q81.09-34.11 86.27-29.66L86.27-29.66L86.27-29.66Q91.46-25.22 91.46-17.09L91.46-17.09L91.46-17.09Q91.46-11.58 89.09-7.58L89.09-7.58L89.09-7.58Q86.72-3.58 82.43-1.50L82.43-1.50L82.43-1.50Q78.14 0.58 72.45 0.58L72.45 0.58ZM72.45-8.58L72.45-8.58Q74.50-8.58 75.49-10.59L75.49-10.59L75.49-10.59Q76.48-12.61 76.48-17.09L76.48-17.09L76.48-17.09Q76.48-21.25 75.52-23.10L75.52-23.10L75.52-23.10Q74.56-24.96 72.45-24.96L72.45-24.96L72.45-24.96Q70.40-24.96 69.44-23.10L69.44-23.10L69.44-23.10Q68.48-21.25 68.48-17.09L68.48-17.09L68.48-17.09Q68.48-12.61 69.47-10.59L69.47-10.59L69.47-10.59Q70.46-8.58 72.45-8.58L72.45-8.58ZM116.42-16.77L94.98-16.77L94.98-26.11L116.42-26.11L116.42-16.77ZM119.55 0L119.55-11.01L124.54-11.01L124.54-38.72L119.55-38.72L119.55-49.73L142.59-49.73L142.59-49.73Q156.16-49.73 163.36-43.46L163.36-43.46L163.36-43.46Q170.56-37.18 170.56-24.90L170.56-24.90L170.56-24.90Q170.56-12.93 163.39-6.46L163.39-6.46L163.39-6.46Q156.22 0 142.53 0L142.53 0L119.55 0ZM140.54-11.01L142.53-11.01L142.53-11.01Q147.78-11.01 150.18-14.94L150.18-14.94L150.18-14.94Q152.58-18.88 152.58-24.90L152.58-24.90L152.58-24.90Q152.58-31.04 150.21-34.88L150.21-34.88L150.21-34.88Q147.84-38.72 142.53-38.72L142.53-38.72L140.54-38.72L140.54-11.01ZM195.26 0.58L195.26 0.58Q189.63 0.58 185.34-1.50L185.34-1.50L185.34-1.50Q181.06-3.58 178.69-7.58L178.69-7.58L178.69-7.58Q176.32-11.58 176.32-17.09L176.32-17.09L176.32-17.09Q176.32-22.53 178.69-26.37L178.69-26.37L178.69-26.37Q181.06-30.21 185.34-32.16L185.34-32.16L185.34-32.16Q189.63-34.11 195.26-34.11L195.26-34.11L195.26-34.11Q203.90-34.11 209.09-29.66L209.09-29.66L209.09-29.66Q214.27-25.22 214.27-17.09L214.27-17.09L214.27-17.09Q214.27-11.58 211.90-7.58L211.90-7.58L211.90-7.58Q209.54-3.58 205.25-1.50L205.25-1.50L205.25-1.50Q200.96 0.58 195.26 0.58L195.26 0.58ZM195.26-8.58L195.26-8.58Q197.31-8.58 198.30-10.59L198.30-10.59L198.30-10.59Q199.30-12.61 199.30-17.09L199.30-17.09L199.30-17.09Q199.30-21.25 198.34-23.10L198.34-23.10L198.34-23.10Q197.38-24.96 195.26-24.96L195.26-24.96L195.26-24.96Q193.22-24.96 192.26-23.10L192.26-23.10L192.26-23.10Q191.30-21.25 191.30-17.09L191.30-17.09L191.30-17.09Q191.30-12.61 192.29-10.59L192.29-10.59L192.29-10.59Q193.28-8.58 195.26-8.58L195.26-8.58ZM273.79 0L233.86 0L233.86-11.20L238.85-11.20L238.85-38.72L233.86-38.72L233.86-49.73L259.84-49.73L259.84-38.72L254.85-38.72L254.85-11.20L262.85-11.20L265.86-22.14L273.79-22.14L273.79 0ZM288.90-36.74L288.90-36.74Q284.99-36.74 282.46-38.59L282.46-38.59L282.46-38.59Q279.94-40.45 279.94-43.90L279.94-43.90L279.94-43.90Q279.94-47.36 282.46-49.15L282.46-49.15L282.46-49.15Q284.99-50.94 288.96-50.94L288.96-50.94L288.96-50.94Q292.93-50.94 295.42-49.18L295.42-49.18L295.42-49.18Q297.92-47.42 297.92-43.90L297.92-43.90L297.92-43.90Q297.92-40.45 295.36-38.59L295.36-38.59L295.36-38.59Q292.80-36.74 288.90-36.74L288.90-36.74ZM300.42 0L277.38 0L277.38-9.41L281.41-9.41L281.41-23.81L277.38-23.81L277.38-31.49L296.38-33.47L296.38-9.41L300.42-9.41L300.42 0ZM322.62 0.58L322.62 0.58Q316.22 0.58 311.30-2.82L311.30-2.82L310.27 0L304.45 0L304.45-12.35L311.42-12.35L311.42-12.35Q311.81-9.98 313.63-8.10L313.63-8.10L313.63-8.10Q315.46-6.21 317.82-6.21L317.82-6.21L317.82-6.21Q318.72-6.21 319.39-6.72L319.39-6.72L319.39-6.72Q320.06-7.23 320.06-8.38L320.06-8.38L320.06-8.38Q320.06-9.54 318.75-10.46L318.75-10.46L318.75-10.46Q317.44-11.39 314.75-12.67L314.75-12.67L314.75-12.67Q311.55-14.27 309.50-15.58L309.50-15.58L309.50-15.58Q307.46-16.90 305.95-19.04L305.95-19.04L305.95-19.04Q304.45-21.18 304.45-24.19L304.45-24.19L304.45-24.19Q304.45-27.33 306.46-29.57L306.46-29.57L306.46-29.57Q308.48-31.81 311.81-32.96L311.81-32.96L311.81-32.96Q315.14-34.11 319.04-34.11L319.04-34.11L319.04-34.11Q324.16-34.11 328.51-31.42L328.51-31.42L329.28-33.47L334.46-33.47L334.46-23.49L328.45-23.49L328.45-23.49Q327.68-25.54 326.21-26.69L326.21-26.69L326.21-26.69Q324.74-27.84 322.75-27.84L322.75-27.84L322.75-27.84Q321.66-27.84 321.06-27.52L321.06-27.52L321.06-27.52Q320.45-27.20 320.45-26.37L320.45-26.37L320.45-26.37Q320.51-25.34 321.66-24.64L321.66-24.64L321.66-24.64Q322.82-23.94 325.50-22.78L325.50-22.78L325.50-22.78Q328.83-21.38 331.01-20.10L331.01-20.10L331.01-20.10Q333.18-18.82 334.82-16.48L334.82-16.48L334.82-16.48Q336.45-14.14 336.45-10.69L336.45-10.69L336.45-10.69Q336.45-7.04 334.53-4.51L334.53-4.51L334.53-4.51Q332.61-1.98 329.47-0.70L329.47-0.70L329.47-0.70Q326.34 0.58 322.62 0.58L322.62 0.58ZM357.57 0.58L357.57 0.58Q351.49 0.58 348.51-2.53L348.51-2.53L348.51-2.53Q345.54-5.63 345.54-11.97L345.54-11.97L345.54-24.32L340.54-24.32L340.54-33.47L345.54-33.47L345.54-40.64L360.51-43.97L360.51-33.47L366.53-33.47L366.53-24.32L360.51-24.32L360.51-13.06L360.51-13.06Q360.51-11.65 361.57-10.72L361.57-10.72L361.57-10.72Q362.62-9.79 364.22-9.79L364.22-9.79L364.22-9.79Q365.38-9.79 366.53-9.98L366.53-9.98L366.53-1.28L366.53-1.28Q362.43 0.58 357.57 0.58L357.57 0.58Z" fill="#ccc"></path></g></g><style>text {
  font-size: 64px;
  font-family: Arial Black;
  dominant-baseline: central;
  text-anchor: middle;
}</style></svg>